<svg
  width="52"
  height="18"
  viewBox="0 0 54 18"
  fill="none"
  xmlns="http://www.w3.org/2000/svg"
>
  <path
    fill-rule="evenodd"
    clip-rule="evenodd"
    d="M1.36392 1.52885C3.01414 2.6438 4.90355 3.92035 6.31104 4.90191L3.69954 6.40137L3.69954 4.11181C3.69954 4.01187 3.59132 3.94943 3.5048 3.99945L0.844185 5.53746C0.804063 5.56065 0.779353 5.60348 0.779353 5.64982V6.07289L0.77935 6.07426V8.37862V11.413V14.8042C0.77935 14.8759 0.837457 14.934 0.909136 14.934H3.56975C3.64143 14.934 3.69954 14.8759 3.69954 14.8042V9.72697L8.4656 6.97524L8.46376 6.97971L8.48324 6.96844C8.64368 6.87565 8.74248 6.70437 8.74248 6.51904V6.2943L8.7422 6.29445V4.00556C8.7422 3.83491 8.65833 3.67515 8.51786 3.57825L4.50825 0.812019C4.48658 0.797069 4.46087 0.789063 4.43455 0.789062L0.692914 0.789087C0.564967 0.789087 0.513636 0.954211 0.619631 1.02587L1.36389 1.52883L1.36392 1.52885ZM14.0388 13.4072C13.4177 13.4072 12.8184 12.9569 12.8184 12.0454C12.8184 11.1229 13.4177 10.6945 14.0388 10.6945C14.6708 10.6945 15.2592 11.1229 15.2592 12.0454C15.2592 12.9679 14.6708 13.4072 14.0388 13.4072ZM14.0388 9.157C12.4261 9.157 11.1621 10.3541 11.1621 12.0454C11.1621 13.7367 12.4261 14.9447 14.0388 14.9447C15.6624 14.9447 16.9155 13.7367 16.9155 12.0454C16.9155 10.3541 15.6624 9.157 14.0388 9.157ZM10.6135 9.32174C10.5046 9.28879 10.3411 9.26683 10.1777 9.26683C9.74182 9.26683 9.05534 9.44254 8.77202 10.0576V9.32174H7.17023V14.78H8.82651V12.3968C8.82651 11.3096 9.42582 10.9142 10.0905 10.9142C10.254 10.9142 10.4283 10.9252 10.6135 10.9691V9.32174ZM20.3027 17.0314C18.7444 17.0314 17.7529 16.0649 17.6003 15.0875L19.0604 14.6702C19.1694 15.1973 19.6053 15.5817 20.2264 15.5817C21.0545 15.5817 21.5667 15.1754 21.5667 14.187V13.9344C21.3705 14.2309 20.902 14.5494 20.1174 14.5494C18.6791 14.5494 17.6003 13.4072 17.6003 11.8916C17.6003 10.4529 18.6355 9.2229 20.1174 9.2229C21 9.2229 21.4686 9.61826 21.6211 9.90381V9.32174H23.2011V14.0991C23.2011 15.6696 22.3294 17.0314 20.3027 17.0314ZM19.2566 11.8916C19.2566 12.6384 19.7578 13.0997 20.4225 13.0997C21.0981 13.0997 21.5776 12.6384 21.5776 11.8916C21.5776 11.1448 21.0436 10.6836 20.4225 10.6836C19.8014 10.6836 19.2566 11.1448 19.2566 11.8916ZM28.0438 9.32174C27.9349 9.28879 27.7714 9.26683 27.608 9.26683C27.1721 9.26683 26.4856 9.44254 26.2023 10.0576V9.32174H24.6005V14.78H26.2568V12.3968C26.2568 11.3096 26.8561 10.9142 27.5208 10.9142C27.6842 10.9142 27.8586 10.9252 28.0438 10.9691V9.32174ZM30.6384 14.9338C29.4507 14.9338 28.7642 14.143 28.7642 13.2754C28.7642 12.309 29.4725 11.7598 30.366 11.628L31.6409 11.4304C31.9351 11.3864 32.0332 11.2437 32.0332 11.057C32.0332 10.7385 31.7607 10.4639 31.2377 10.4639C30.6602 10.4639 30.3442 10.8593 30.3115 11.2656L28.8732 10.9691C28.9385 10.1894 29.6577 9.157 31.2486 9.157C33.003 9.157 33.6459 10.1454 33.6459 11.2656V13.9344C33.6459 14.3627 33.7003 14.7251 33.7112 14.78H32.2184C32.2075 14.7361 32.1639 14.5384 32.1639 14.165C31.8806 14.6263 31.3576 14.9338 30.6384 14.9338ZM30.3987 13.1656C30.3987 13.4511 30.5839 13.7257 31.0416 13.7257C31.5319 13.7257 32.0332 13.4841 32.0332 12.6384V12.3968L31.0089 12.5616C30.6602 12.6165 30.3987 12.7812 30.3987 13.1656ZM36.6958 14.78V11.639C36.6958 11.1448 37.0118 10.6945 37.5893 10.6945C38.1886 10.6945 38.461 11.1009 38.461 11.6171V14.78H40.0955V11.628C40.0955 11.1448 40.4115 10.6945 40.9999 10.6945C41.5884 10.6945 41.8608 11.1009 41.8608 11.6171V14.78H43.4626V11.2437C43.4626 9.76103 42.4819 9.157 41.4576 9.157C40.7275 9.157 40.2045 9.39861 39.7795 10.0136C39.5071 9.47549 38.9514 9.157 38.1777 9.157C37.5893 9.157 36.8919 9.46451 36.6195 9.94774V9.32174H35.0395V14.78H36.6958ZM53.2453 13.3413V14.78H48.7014V13.3084L51.0878 10.7495H48.7668V9.32174H53.2017V10.6945L50.7064 13.3413H53.2453ZM46.862 14.7688H44.9576L45.5179 11.1905H44.9576V9.19616H47.4189V11.1905L46.862 14.7688ZM44.9576 5.593H47.4189V7.95261H44.9576V5.593Z"
    fill="white"
  />
</svg>
